<?xml version="1.0" encoding="utf-8"?>
<!-- Generator: Adobe Illustrator 24.0.1, SVG Export Plug-In . SVG Version: 6.00 Build 0)  -->
<svg version="1.1" id="Camada_1" xmlns="http://www.w3.org/2000/svg" xmlns:xlink="http://www.w3.org/1999/xlink" x="0px" y="0px"
	 viewBox="0 0 281.2 281.2" style="enable-background:new 0 0 281.2 281.2;" xml:space="preserve">
<style type="text/css">
	.st0{filter:url(#Adobe_OpacityMaskFilter);}
	.st1{mask:url(#SVGID_1_);fill:url(#SVGID_2_);}
</style>
<defs>
	<filter id="Adobe_OpacityMaskFilter" filterUnits="userSpaceOnUse" x="42" y="11.4" width="197.1" height="258.5">
		
			<feColorMatrix  type="matrix" values="-1 0 0 0 1  0 -1 0 0 1  0 0 -1 0 1  0 0 0 1 0" color-interpolation-filters="sRGB" result="source"/>
	</filter>
</defs>
<mask maskUnits="userSpaceOnUse" x="42" y="11.4" width="197.1" height="258.5" id="SVGID_1_">
	<g class="st0">
		<g>
			<path d="M216.6,190.6c-20.5,10.1-47.5,15.6-76.2,15.6s-55.7-5.6-76.2-15.6c-7.8-3.8-14.3-8.2-19.6-12.9v38.4
				c0,14.6,10.7,27.8,30,37.4c17.7,8.7,41.1,13.5,65.8,13.5s48.1-4.8,65.8-13.5c19.3-9.5,30-22.8,30-37.4v-38.4
				C231,182.5,224.4,186.8,216.6,190.6z M99.9,220.3c3.8,1,6.4,4.9,5.5,8.7c-0.8,3.4-3.8,5.7-7.1,5.7c-0.6,0-1.3-0.1-1.9-0.2
				c-6.9-1.8-13.3-4.1-19.1-6.8c-3.7-1.7-5.6-6-3.9-9.7c1.6-3.8,6.1-5.4,9.8-3.7C88.2,216.6,93.8,218.6,99.9,220.3z"/>
			<path d="M70.7,177.5c18.5,9.1,43.3,14.1,69.7,14.1s51.2-5,69.7-14.1c15.5-7.6,24.8-17.4,26-27.2c-0.7-14-11.3-26.7-30-35.9
				c-17.7-8.7-41.1-13.5-65.8-13.5s-48.1,4.8-65.8,13.5c-18.7,9.2-29.3,21.9-30,35.9C45.9,160.1,55.2,169.9,70.7,177.5z
				 M155.4,143.5c0-4.3,3.8-7.8,8.2-7.3c3.7,0.4,6.4,3.8,6.4,7.6v10.8c0,3.8-2.7,7.1-6.4,7.6c-4.4,0.5-8.2-2.9-8.2-7.3V143.5z
				 M133.1,130.4c0-4.3,3.8-7.8,8.2-7.3c3.7,0.4,6.4,3.8,6.4,7.6v37c0,3.8-2.7,7.1-6.4,7.6c-4.4,0.5-8.2-2.9-8.2-7.3V130.4z
				 M110.8,143.5c0-4.3,3.8-7.8,8.2-7.3c3.7,0.4,6.4,3.8,6.4,7.6v10.8c0,3.8-2.7,7.1-6.4,7.6c-4.4,0.5-8.2-2.9-8.2-7.3V143.5z"/>
			<path d="M161.1,61.4c1.9,0,3.7-0.7,5.2-2.1c2.9-2.9,2.9-7.5,0-10.4c-6.9-6.9-16.1-10.7-25.8-10.7c-9.8,0-18.9,3.8-25.8,10.7
				c-2.9,2.9-2.9,7.5,0,10.4c2.9,2.9,7.5,2.9,10.4,0c4.1-4.1,9.6-6.4,15.5-6.4c5.8,0,11.3,2.3,15.5,6.4
				C157.3,60.7,159.2,61.4,161.1,61.4z"/>
			<path d="M112.9,43c15.2-15.2,39.9-15.2,55.1,0c1.4,1.4,3.3,2.1,5.2,2.1c1.9,0,3.8-0.7,5.2-2.1c2.9-2.9,2.9-7.5,0-10.4
				c-20.9-20.9-55-20.9-75.9,0c-2.9,2.9-2.9,7.5,0,10.4C105.4,45.9,110,45.9,112.9,43z"/>
			<path d="M132.6,68.9c-1.1,5.6,3.8,10.5,9.4,9.4c3.2-0.6,5.7-3.1,6.3-6.3c1.1-5.6-3.8-10.5-9.4-9.4
				C135.7,63.2,133.2,65.8,132.6,68.9z"/>
		</g>
	</g>
</mask>
<linearGradient id="SVGID_2_" gradientUnits="userSpaceOnUse" x1="60.9236" y1="59.3482" x2="220.6066" y2="222.1887">
	<stop  offset="4.255319e-03" style="stop-color:#5CB3E4"/>
	<stop  offset="1" style="stop-color:#5C76B7"/>
</linearGradient>
<rect x="42" y="11.4" class="st1" width="197.1" height="258.5"/>
</svg>
